<svg xmlns="http://www.w3.org/2000/svg" width="362" height="96" fill="none" viewBox="0 0 362 96" data-sentry-element="S.Logo" data-sentry-source-file="index.tsx" class="css-ofbbry e15chyj21"><path fill="#00B0FF" d="M28.93 94.69c-.62 0-1.24-.23-1.72-.7-.97-.95-.99-2.51-.04-3.48l34.7-35.56c.95-.97 2.51-.99 3.48-.04s.99 2.51.04 3.48l-34.7 35.56c-.48.49-1.12.74-1.76.74"></path><path fill="#FFB800" d="M28.93 81.45c-.62 0-1.24-.23-1.72-.7-.97-.95-.99-2.51-.04-3.48l34.7-35.56c.95-.97 2.51-.99 3.48-.04s.99 2.51.04 3.48l-34.7 35.56c-.48.49-1.12.74-1.76.74"></path><path fill="#00C308" d="M28.31 42.37c-.62 0-1.24-.23-1.72-.7-.97-.95-.99-2.51-.04-3.48l34.7-35.56c.95-.97 2.51-.99 3.48-.04s.99 2.51.04 3.48l-34.7 35.56c-.48.49-1.12.74-1.76.74"></path><path fill="#FFB800" d="M15.39 42.37c-.62 0-1.24-.23-1.72-.7-.97-.95-.99-2.51-.04-3.48l34.7-35.56c.95-.97 2.51-.99 3.48-.04s.99 2.51.04 3.48l-34.7 35.56c-.48.49-1.12.74-1.76.74"></path><path fill="#8C00C4" d="M2.46 42.37c-.62 0-1.24-.23-1.72-.7-.97-.95-.99-2.51-.04-3.48L35.4 2.63c.95-.97 2.51-.99 3.48-.04s.99 2.51.04 3.48L4.22 41.63c-.48.49-1.12.74-1.76.74"></path><path fill="#00B0FF" d="M41.24 42.37c-.62 0-1.24-.23-1.72-.7-.97-.95-.99-2.51-.04-3.48l34.7-35.56c.95-.97 2.51-.99 3.48-.04s.99 2.51.04 3.48L43 41.63c-.48.49-1.12.74-1.76.74"></path><path fill="#F50" d="M54.17 42.37c-.62 0-1.24-.23-1.72-.7-.97-.95-.99-2.51-.04-3.48L87.1 2.63c.95-.97 2.51-.99 3.48-.04s.99 2.51.04 3.48l-34.7 35.56c-.47.49-1.11.74-1.75.74"></path><path fill="#00C308" d="M28.93 68.22c-.62 0-1.24-.23-1.72-.7-.97-.95-.99-2.51-.04-3.48l34.7-35.56c.95-.97 2.51-.99 3.48-.04s.99 2.51.04 3.48l-34.7 35.56c-.48.49-1.12.74-1.76.74"></path><path fill="#F50" d="M28.93 54.98c-.62 0-1.24-.23-1.72-.7-.97-.95-.99-2.51-.04-3.48l34.7-35.56c.95-.97 2.51-.99 3.48-.04s.99 2.51.04 3.48l-34.7 35.56c-.48.49-1.12.74-1.76.74"></path><path fill="#333" d="M125.77 7.87h-11.83V1.58h30.42v6.29h-11.89v34.5h-6.7zM152.76 1.58h3.84v17.54h16.84V1.58h6.7v40.8h-3.84a2.87 2.87 0 0 1-2.87-2.87V25.12H156.6v17.25h-3.84a2.87 2.87 0 0 1-2.87-2.87V4.44c0-1.58 1.29-2.86 2.87-2.86M220 21.97C220 10.31 227.87.58 241.1.58s21.1 9.73 21.1 21.39-7.87 21.39-21.1 21.39c-13.24 0-21.1-9.73-21.1-21.39m35.14 0c.06-8.45-5.01-15.39-14.05-15.39-9.03 0-14.1 6.94-14.05 15.39-.06 8.45 5.01 15.38 14.05 15.38 9.04.01 14.11-6.93 14.05-15.38M308.64 1.58h3.84v40.8h-3.84a2.87 2.87 0 0 1-2.87-2.87V4.44c0-1.58 1.28-2.86 2.87-2.86M125.77 59.87h-11.83v-6.29h30.42v6.29h-11.89v34.5h-6.7zM147.56 73.98c0-11.66 7.87-21.39 21.1-21.39s21.1 9.73 21.1 21.39-7.87 21.39-21.1 21.39-21.1-9.74-21.1-21.39m35.15 0c.06-8.45-5.01-15.39-14.05-15.39-9.03 0-14.1 6.94-14.05 15.39-.06 8.45 5.01 15.38 14.05 15.38 9.03 0 14.1-6.93 14.05-15.38M319.64 81.2l8.04 13.17h-7.63l-7.46-12.24H306v12.24h-3.84a2.87 2.87 0 0 1-2.87-2.87V56.44a2.87 2.87 0 0 1 2.87-2.87h12.17c8.16 0 13.99 5.94 13.99 14.28.01 6.36-3.43 11.37-8.68 13.35m-13.63-5.07h7.93c4.43 0 7.69-3.5 7.69-8.27 0-4.78-3.26-8.28-7.69-8.28h-7.93zM332.99 81.03h6.7c0 5.3 3.03 8.51 8.1 8.51 4.43 0 6.88-2.04 6.88-5.71 0-3.09-1.46-4.66-6.06-6.53l-6.64-2.68c-5.13-1.98-7.81-5.65-7.81-10.84 0-6.64 5.36-11.19 13.05-11.19 8.1 0 13.46 5.07 13.46 12.76h-6.7c0-4.49-2.45-7.05-6.99-7.05-3.85 0-6.06 1.98-6.06 5.07 0 2.8 1.98 4.66 6.76 6.59l6 2.45c5.13 2.1 7.69 5.71 7.69 11.25 0 6.99-5.42 11.71-13.52 11.71-9.44 0-14.86-5.19-14.86-14.34M213.3 7.58v-6h-20.68a2.87 2.87 0 0 0-2.87 2.87v35.07a2.87 2.87 0 0 0 2.87 2.87h20.68v-6h-16.84V25.12h16.84v-6h-16.84v-8.28c-.01-.64-.39-1.22-.98-1.48l-2.84-1.24c-.28-.12-.19-.54.11-.54zM345.63 7.58v-6h-20.68a2.87 2.87 0 0 0-2.87 2.87v35.07a2.87 2.87 0 0 0 2.87 2.87h20.68v-6h-16.84V25.12h16.84v-6h-16.84v-8.28c-.01-.64-.39-1.22-.98-1.48l-2.84-1.24c-.28-.12-.19-.54.11-.54zM290.27 59.58v-6H269.6a2.87 2.87 0 0 0-2.87 2.87v35.07a2.87 2.87 0 0 0 2.87 2.87h20.68v-6h-16.84V77.12h16.84v-6h-16.84v-8.28c-.01-.64-.39-1.22-.98-1.48l-2.84-1.24c-.28-.12-.19-.54.11-.54zM212.07 53.58H199.9a2.87 2.87 0 0 0-2.87 2.87v35.07a2.87 2.87 0 0 0 2.87 2.87h3.84V82.14h8.33c8.16 0 13.99-5.94 13.99-14.28s-5.83-14.28-13.99-14.28m-.41 6c4.43 0 7.69 3.5 7.69 8.28s-3.26 8.27-7.69 8.27h-7.93V62.86c0-.65-.39-1.23-.98-1.49l-2.84-1.24c-.28-.12-.19-.54.11-.54h11.64zM246.92 53.58h-12.17a2.87 2.87 0 0 0-2.87 2.87v35.07a2.87 2.87 0 0 0 2.87 2.87h3.84V82.14h8.33c8.16 0 13.99-5.94 13.99-14.28s-5.83-14.28-13.99-14.28m-.41 6c4.43 0 7.69 3.5 7.69 8.28s-3.26 8.27-7.69 8.27h-7.93V62.86c0-.65-.39-1.23-.98-1.49l-2.84-1.24c-.28-.12-.19-.54.11-.54h11.64zM298.49 15.85c0-8.33-5.83-14.28-13.99-14.28h-12.17a2.87 2.87 0 0 0-2.87 2.87v35.07a2.87 2.87 0 0 0 2.87 2.87h3.84V30.13h6.59l7.46 12.24h7.63l-8.04-13.17c5.24-1.98 8.68-6.99 8.68-13.35M284.1 7.58c4.43 0 7.69 3.5 7.69 8.28s-3.26 8.27-7.69 8.27h-7.93V10.86c0-.65-.39-1.24-.98-1.5l-2.84-1.24c-.28-.12-.19-.54.11-.54z"></path></svg>